<svg width="50" height="54" viewBox="0 0 50 54" fill="none" xmlns="http://www.w3.org/2000/svg">
<path fill-rule="evenodd" clip-rule="evenodd" d="M13.83 32.1837C14.1258 31.4076 14.9948 31.0183 15.7709 31.3141L20.4874 33.112C21.2635 33.4079 21.6528 34.2769 21.357 35.053C21.0611 35.8291 20.1922 36.2184 19.4161 35.9226L14.6996 34.1247C13.9235 33.8288 13.5341 32.9598 13.83 32.1837Z" fill="white"/>
<path fill-rule="evenodd" clip-rule="evenodd" d="M9.73101 34.1746C10.5643 31.6767 13.3104 30.3762 15.7708 31.3142C16.5469 31.6101 16.9362 32.4791 16.6403 33.2552C16.3445 34.0313 15.4755 34.4206 14.6994 34.1247C13.8377 33.7962 12.8761 34.2516 12.5842 35.1264C12.3214 35.9143 11.4696 36.3399 10.6817 36.0771C9.89382 35.8143 9.46818 34.9625 9.73101 34.1746Z" fill="white"/>
<path fill-rule="evenodd" clip-rule="evenodd" d="M11.6337 33.2239C12.4216 33.4868 12.8472 34.3386 12.5843 35.1265C12.3206 35.9169 12.6991 36.7786 13.4598 37.1191C14.2179 37.4584 14.5574 38.3481 14.2181 39.1062C13.8788 39.8643 12.9892 40.2038 12.231 39.8644C10.0591 38.8923 8.97795 36.4318 9.73113 34.1745C9.99402 33.3866 10.8458 32.961 11.6337 33.2239Z" fill="white"/>
<path fill-rule="evenodd" clip-rule="evenodd" d="M11.4727 37.8774C11.812 37.1193 12.7016 36.7798 13.4597 37.1191L29.3605 44.2359C30.1187 44.5752 30.4582 45.4649 30.1189 46.223C29.7795 46.9811 28.8899 47.3206 28.1318 46.9813L12.231 39.8645C11.4729 39.5252 11.1334 38.6355 11.4727 37.8774Z" fill="white"/>
<path fill-rule="evenodd" clip-rule="evenodd" d="M27.3738 44.9942C27.7131 44.2361 28.6027 43.8966 29.3608 44.2359C29.9939 44.5192 30.7135 44.528 31.3517 44.2606C32.1178 43.9395 32.999 44.3003 33.32 45.0664C33.641 45.8324 33.2802 46.7136 32.5142 47.0346C31.1077 47.624 29.5227 47.6036 28.1321 46.9813C27.374 46.642 27.0345 45.7524 27.3738 44.9942Z" fill="white"/>
<path fill-rule="evenodd" clip-rule="evenodd" d="M30.5457 46.2288C30.2247 45.4627 30.5855 44.5815 31.3515 44.2605L39.9225 40.6689C40.6886 40.3479 41.5698 40.7087 41.8908 41.4747C42.2118 42.2408 41.851 43.122 41.085 43.443L32.514 47.0346C31.7479 47.3556 30.8667 46.9948 30.5457 46.2288Z" fill="white"/>
<path fill-rule="evenodd" clip-rule="evenodd" d="M44.2203 30.1715C44.9863 29.8505 45.8675 30.2112 46.1885 30.9773C48.0211 35.3504 46.3782 41.2249 41.085 43.443C40.319 43.764 39.4378 43.4032 39.1168 42.6372C38.7958 41.8711 39.1566 40.9899 39.9226 40.6689C43.5065 39.1671 44.6818 35.1641 43.4145 32.1397C43.0935 31.3737 43.4542 30.4925 44.2203 30.1715Z" fill="white"/>
<path fill-rule="evenodd" clip-rule="evenodd" d="M37.5776 14.3196C38.3436 13.9986 39.2249 14.3594 39.5459 15.1254L46.1882 30.9767C46.1883 30.9768 46.1885 30.9773 44.8014 31.5585C43.4144 32.1398 43.4144 32.1397 43.4143 32.1396L36.7718 16.2879C36.4508 15.5219 36.8116 14.6406 37.5776 14.3196ZM45.3826 32.9456C44.6166 33.2666 43.7353 32.9057 43.4143 32.1396L44.8014 31.5585L46.1885 30.9773C46.5095 31.7434 46.1487 32.6246 45.3826 32.9456Z" fill="white"/>
<path fill-rule="evenodd" clip-rule="evenodd" d="M32.0293 16.6443C32.7953 16.3233 33.6765 16.6841 33.9975 17.4502L34.4403 18.5067L33.0533 19.0882L31.6663 19.6694L31.2234 18.6126C30.9024 17.8466 31.2632 16.9653 32.0293 16.6443ZM33.6346 20.4752C32.8685 20.7962 31.9873 20.4355 31.6663 19.6694L33.0533 19.0882L34.4403 18.5067C34.7613 19.2728 34.4006 20.1542 33.6346 20.4752Z" fill="white"/>
<path fill-rule="evenodd" clip-rule="evenodd" d="M33.8772 15.8491C33.7433 16.1837 33.6873 16.7099 33.9976 17.4502C34.3186 18.2162 33.9578 19.0974 33.1917 19.4184C32.4257 19.7394 31.5445 19.3787 31.2235 18.6126C30.648 17.2393 30.6213 15.8896 31.0848 14.7315C31.5418 13.5898 32.4313 12.7488 33.4748 12.3115C34.5184 11.8742 35.7417 11.8298 36.8761 12.3047C38.0268 12.7864 38.9703 13.752 39.5457 15.1252C39.8667 15.8913 39.506 16.7725 38.7399 17.0935C37.9739 17.4145 37.0926 17.0537 36.7716 16.2877C36.4614 15.5474 36.0471 15.2184 35.7146 15.0792C35.3659 14.9332 34.9808 14.9416 34.6373 15.0856C34.2938 15.2295 34.0177 15.4982 33.8772 15.8491Z" fill="white"/>
<path fill-rule="evenodd" clip-rule="evenodd" d="M25.5955 16.8558C26.3616 16.5348 27.2428 16.8956 27.5638 17.6616L28.8922 20.8317L27.5053 21.4132L26.1182 21.9944L24.7897 18.8241C24.4687 18.058 24.8295 17.1768 25.5955 16.8558ZM28.0865 22.8003C27.3205 23.1213 26.4392 22.7605 26.1182 21.9944L27.5053 21.4132L28.8922 20.8317C29.2132 21.5977 28.8526 22.4792 28.0865 22.8003Z" fill="white"/>
<path fill-rule="evenodd" clip-rule="evenodd" d="M27.4435 16.0606C27.3096 16.3952 27.2536 16.9213 27.5638 17.6616C27.8848 18.4276 27.5241 19.3089 26.758 19.6299C25.992 19.9509 25.1108 19.5901 24.7898 18.8241C24.2143 17.4508 24.1876 16.1011 24.6511 14.9429C25.108 13.8012 25.9976 12.9602 27.0411 12.5229C28.0846 12.0857 29.308 12.0413 30.4424 12.5161C31.5931 12.9978 32.5365 13.9634 33.112 15.3367C33.433 16.1027 33.0722 16.9839 32.3062 17.305C31.5402 17.626 30.6589 17.2652 30.3379 16.4991C30.0277 15.7588 29.6134 15.4298 29.2809 15.2906C28.9322 15.1446 28.5471 15.1531 28.2036 15.297C27.8601 15.441 27.584 15.7096 27.4435 16.0606Z" fill="white"/>
<path fill-rule="evenodd" clip-rule="evenodd" d="M31.1436 14.5309C31.9097 14.2099 32.7909 14.5707 33.1119 15.3367L33.9976 17.4503C34.3186 18.2163 33.9578 19.0976 33.1918 19.4186C32.4257 19.7396 31.5445 19.3788 31.2235 18.6128L30.3378 16.4992C30.0168 15.7331 30.3776 14.8519 31.1436 14.5309Z" fill="white"/>
<path fill-rule="evenodd" clip-rule="evenodd" d="M32.0293 16.6444C32.7953 16.3234 33.6765 16.6842 33.9975 17.4503L34.4403 18.5068L33.0533 19.0883L31.6663 19.6695L31.2234 18.6127C30.9024 17.8467 31.2632 16.9654 32.0293 16.6444ZM33.6346 20.4753C32.8685 20.7963 31.9873 20.4356 31.6663 19.6695L33.0533 19.0883L34.4403 18.5068C34.7613 19.2729 34.4006 20.1543 33.6346 20.4753Z" fill="white"/>
<path fill-rule="evenodd" clip-rule="evenodd" d="M19.4386 17.7277C20.2046 17.4067 21.0858 17.7674 21.4068 18.5335L23.3441 23.1566L21.9572 23.7383L20.5702 24.3195L18.6327 19.6959C18.3117 18.9299 18.6725 18.0487 19.4386 17.7277ZM22.5385 25.1253C21.7724 25.4463 20.8912 25.0855 20.5702 24.3195L21.9572 23.7383L23.3443 23.157C23.6653 23.9231 23.3045 24.8043 22.5385 25.1253Z" fill="white"/>
<path fill-rule="evenodd" clip-rule="evenodd" d="M21.2864 16.9325C21.1525 17.2671 21.0965 17.7932 21.4067 18.5335C21.7277 19.2995 21.367 20.1807 20.6009 20.5017C19.8349 20.8227 18.9537 20.462 18.6326 19.6959C18.0572 18.3226 18.0305 16.9729 18.494 15.8148C18.9509 14.6731 19.8405 13.8321 20.884 13.3948C21.9275 12.9575 23.1509 12.9131 24.2853 13.388C25.436 13.8697 26.3794 14.8353 26.9549 16.2085C27.2759 16.9746 26.9151 17.8558 26.1491 18.1768C25.383 18.4978 24.5018 18.137 24.1808 17.371C23.8706 16.6307 23.4563 16.3017 23.1238 16.1625C22.7751 16.0165 22.39 16.0249 22.0465 16.1689C21.703 16.3129 21.4269 16.5815 21.2864 16.9325Z" fill="white"/>
<path fill-rule="evenodd" clip-rule="evenodd" d="M24.9868 15.4028C25.7528 15.0818 26.634 15.4425 26.955 16.2086L25.568 16.7898L24.181 17.371C23.86 16.605 24.2207 15.7238 24.9868 15.4028ZM25.568 16.7898L24.181 17.371L24.7899 18.8241C25.1109 19.5902 25.9921 19.951 26.7581 19.63C27.5242 19.309 27.885 18.4277 27.564 17.6617L26.955 16.2086L25.568 16.7898Z" fill="white"/>
<path fill-rule="evenodd" clip-rule="evenodd" d="M25.5957 16.8559C26.3617 16.5349 27.2429 16.8956 27.5639 17.6617L28.8924 20.8319L27.5054 21.4134L26.1184 21.9946L24.7898 18.8241C24.4688 18.0581 24.8296 17.1769 25.5957 16.8559ZM28.0867 22.8004C27.3206 23.1214 26.4394 22.7606 26.1184 21.9946L27.5054 21.4134L28.8924 20.8319C29.2134 21.5979 28.8527 22.4794 28.0867 22.8004Z" fill="white"/>
<path fill-rule="evenodd" clip-rule="evenodd" d="M10.7904 12.6549C11.5564 12.3339 12.4376 12.6947 12.7586 13.4607L21.3386 33.936C21.6596 34.7021 21.2989 35.5833 20.5328 35.9043C19.7668 36.2253 18.8856 35.8645 18.5646 35.0985L9.98455 14.6232C9.66354 13.8571 10.0243 12.9759 10.7904 12.6549Z" fill="white"/>
<path fill-rule="evenodd" clip-rule="evenodd" d="M13.5647 11.4925C12.7986 11.8135 12.4379 12.6947 12.7589 13.4608C13.0799 14.2268 12.7191 15.108 11.953 15.429C11.187 15.75 10.3058 15.3893 9.98477 14.6232C9.02176 12.3251 10.1041 9.68141 12.4022 8.7184C13.1683 8.3974 14.0495 8.75817 14.3705 9.52421C14.6915 10.2903 14.3307 11.1715 13.5647 11.4925Z" fill="white"/>
<path fill-rule="evenodd" clip-rule="evenodd" d="M11.5962 10.6867C11.2752 9.92063 11.636 9.0394 12.4021 8.7184C14.6989 7.75593 17.3426 8.83461 18.3061 11.134C18.6271 11.9 18.2663 12.7812 17.5003 13.1022C16.7342 13.4232 15.853 13.0625 15.532 12.2964C15.2115 11.5316 14.3317 11.171 13.5645 11.4925C12.7985 11.8135 11.9172 11.4527 11.5962 10.6867Z" fill="white"/>
<path fill-rule="evenodd" clip-rule="evenodd" d="M16.3377 10.3281C17.1038 10.0071 17.985 10.3679 18.306 11.1339L21.4067 18.5333C21.7277 19.2994 21.3669 20.1806 20.6008 20.5016C19.8348 20.8226 18.9536 20.4618 18.6326 19.6958L15.5319 12.2964C15.2109 11.5303 15.5717 10.6491 16.3377 10.3281Z" fill="white"/>
<path fill-rule="evenodd" clip-rule="evenodd" d="M19.4386 17.7276C20.2046 17.4066 21.0858 17.7673 21.4068 18.5334L23.3441 23.1564L21.9572 23.7381L20.5702 24.3193L18.6327 19.6958C18.3117 18.9298 18.6725 18.0486 19.4386 17.7276ZM22.5384 25.1251C21.7724 25.4461 20.8912 25.0853 20.5702 24.3193L21.9572 23.7381L23.3443 23.1568C23.6653 23.9229 23.3045 24.8041 22.5384 25.1251Z" fill="white"/>
</svg>
