<svg width="584" height="63" viewBox="0 0 584 63" fill="none" xmlns="http://www.w3.org/2000/svg">
<path d="M17.1596 16.3189H0V10.0736H41.6622V16.3189H24.5808V61.1442H17.1596V16.3189ZM65.2535 10.0736C68.218 10.0594 71.1789 10.2784 74.1066 10.7284C76.5592 11.0659 78.9205 11.8613 81.059 13.0703C82.9777 14.2121 84.5357 15.8409 85.5637 17.7795C86.7138 20.1912 87.2581 22.8317 87.1522 25.4855C87.2686 28.1644 86.724 30.8317 85.5637 33.267C84.5431 35.204 82.9828 36.8264 81.059 37.9509C78.9137 39.141 76.5547 39.9271 74.1066 40.2677C71.1781 40.7094 68.2172 40.9198 65.2535 40.8974H56.1659V61.0436H48.7448V10.0736H65.2535ZM56.1659 16.193V34.7023H65.8524C67.7792 34.7023 69.6019 34.7023 71.2684 34.4505C72.7941 34.3267 74.2799 33.916 75.6429 33.2417C76.8631 32.6197 77.8679 31.6654 78.5333 30.4969C79.3336 28.9356 79.7015 27.2001 79.6009 25.4603C79.6876 23.7214 79.3204 21.9894 78.5333 20.4237C77.864 19.2453 76.8614 18.2758 75.6429 17.6284C74.2835 16.9373 72.7975 16.5096 71.2684 16.3693C69.4706 16.17 67.6619 16.0775 65.8524 16.0923L56.1659 16.193ZM131.028 20.6252L102.671 61.1442H95.2502V10.0736H102.671V50.5927L131.028 10.0736H138.449V61.1442H131.028V20.6252ZM165.373 10.0736H173.966L193.833 61.0939H185.814L181.673 50.1142H157.457L153.369 61.1442H145.818L165.373 10.0736ZM159.697 43.9948H179.356L169.461 17.3766L159.697 43.9948ZM227.086 34.1987C229.738 34.8743 232.112 36.3254 233.881 38.3539C235.731 40.7621 236.652 43.7193 236.484 46.7144C236.561 49.0044 236.036 51.2756 234.956 53.3151C233.877 55.3547 232.279 57.0954 230.315 58.3741C228.376 59.6533 226.215 60.5833 223.934 61.119C221.464 61.7091 218.928 62.0051 216.383 62.0005C211.504 62.298 206.683 60.8453 202.842 57.9209C199.457 54.9466 197.185 50.97 196.386 46.6138H203.65C204.095 49.4093 205.643 51.9286 207.972 53.6398C210.562 55.3857 213.671 56.2696 216.826 56.1581C220.038 56.4047 223.231 55.5093 225.808 53.6398C226.805 52.7799 227.592 51.7177 228.114 50.5291C228.636 49.3407 228.881 48.0553 228.83 46.765C228.911 45.5284 228.691 44.2908 228.184 43.1529C227.677 42.0148 226.899 41.009 225.914 40.2174C223.275 38.4559 220.104 37.5963 216.903 37.7746H210.628V31.8819H216.461C219.121 31.9862 221.743 31.2526 223.934 29.7917C224.897 29.0886 225.663 28.1666 226.166 27.1079C226.671 26.0491 226.897 24.8863 226.826 23.7227C226.927 22.5496 226.747 21.3696 226.294 20.2764C225.842 19.1833 225.132 18.2076 224.22 17.427C222.067 15.8857 219.424 15.1197 216.747 15.2612C215.332 15.2589 213.925 15.48 212.582 15.916C211.269 16.3094 210.054 16.961 209.014 17.8299C207.947 18.7497 207.066 19.8508 206.41 21.0785C205.677 22.4701 205.218 23.9816 205.056 25.5358H197.609C197.91 23.2201 198.596 20.9664 199.639 18.8624C200.636 16.9543 201.998 15.2455 203.65 13.8258C205.355 12.3529 207.346 11.223 209.509 10.5017C211.934 9.71208 214.477 9.32053 217.033 9.34329C219.307 9.27287 221.577 9.51882 223.778 10.0736C225.771 10.6421 227.641 11.555 229.299 12.7682C230.931 13.9271 232.255 15.445 233.159 17.1966C234.065 18.9481 234.527 20.8831 234.506 22.8413C234.572 25.2262 233.901 27.5761 232.579 29.5902C231.221 31.5323 229.352 33.0885 227.163 34.098M259.4 10.0736H267.966L287.833 61.0939H279.84L275.674 50.0639H251.457L247.369 61.1442H239.819L259.4 10.0736ZM253.697 43.9948H273.408L263.461 17.3766L253.697 43.9948ZM295.176 10.0736H314.185C316.549 10.0666 318.907 10.2434 321.241 10.6024C323.316 10.9005 325.313 11.5755 327.127 12.5919C328.794 13.5254 330.192 14.8506 331.188 16.4448C332.275 18.3445 332.807 20.495 332.726 22.665C332.746 24.9738 332.221 27.2567 331.188 29.3384C330.273 31.2462 328.785 32.843 326.918 33.9217C329.276 34.8393 331.316 36.3849 332.803 38.3791C334.287 40.6299 335.024 43.2663 334.913 45.9338C334.979 48.3277 334.479 50.7047 333.455 52.8844C332.518 54.7236 331.134 56.3141 329.417 57.5179C327.611 58.8471 325.561 59.8378 323.378 60.4391C320.957 61.0075 318.472 61.2866 315.982 61.2702H295.15L295.176 10.0736ZM302.599 55.05H316.061C319.064 55.2823 322.057 54.4695 324.497 52.7584C325.45 51.9252 326.194 50.8945 326.678 49.7431C327.161 48.5918 327.368 47.3498 327.283 46.1101C327.392 44.8856 327.191 43.6538 326.695 42.5216C326.202 41.3894 325.427 40.391 324.444 39.6131C321.786 38.0826 318.704 37.3794 315.618 37.5984H302.599V55.05ZM302.599 31.907H315.332C317.886 32.0398 320.42 31.3875 322.57 30.0436C323.504 29.2644 324.229 28.2777 324.683 27.1679C325.135 26.0582 325.305 24.8587 325.173 23.6723C325.28 22.58 325.098 21.4795 324.642 20.4748C324.186 19.47 323.474 18.5943 322.57 17.9306C320.413 16.6549 317.909 16.0323 315.383 16.1426H302.65L302.599 31.907ZM380.715 20.5749L352.384 61.1442H344.937V10.0736H352.384V50.5927L380.74 10.0736H388.162V61.1442H380.74L380.715 20.5749ZM418.653 10.0736C421.618 10.0602 424.579 10.2791 427.507 10.7284C429.952 11.0615 432.305 11.8573 434.432 13.0703C436.365 14.2034 437.934 15.8339 438.963 17.7795C440.114 20.1912 440.658 22.8317 440.553 25.4855C440.668 28.1644 440.123 30.8317 438.963 33.267C437.94 35.2103 436.371 36.8342 434.432 37.9509C432.298 39.1446 429.946 39.9311 427.507 40.2677C424.577 40.7079 421.616 40.9185 418.653 40.8974H409.565V61.0436H402.144V10.0736H418.653ZM409.565 16.1426V34.652H419.225C421.179 34.652 422.976 34.652 424.668 34.4002C426.186 34.2794 427.663 33.8686 429.016 33.1913C430.25 32.5783 431.265 31.6222 431.932 30.4464C432.733 28.8853 433.102 27.1498 433 25.41C433.087 23.6711 432.72 21.9391 431.932 20.3734C431.254 19.2067 430.24 18.2537 429.016 17.6284C427.667 16.9337 426.19 16.5057 424.668 16.3693C422.859 16.2035 421.041 16.1446 419.225 16.193L409.565 16.1426ZM484.323 20.6252L455.94 61.1442H448.52V10.0736H455.94V50.5927L484.323 10.0736H491.745V61.1442H484.323V20.6252ZM548.378 10.0736V61.1442H540.957V38.0013H513.253V61.1442H505.831V10.0736H513.253V31.756H540.957V10.0736H548.378ZM556.763 13.2214C556.729 11.3648 557.093 9.52147 557.831 7.80715C558.5 6.25801 559.483 4.85396 560.721 3.67764C561.961 2.5013 563.43 1.57643 565.045 0.957425C568.471 -0.319142 572.267 -0.319142 575.694 0.957425C577.293 1.58675 578.753 2.5104 579.989 3.67716C581.233 4.87553 582.222 6.2951 582.906 7.85752C583.631 9.57546 583.994 11.4163 583.974 13.2718C583.993 15.1027 583.629 16.9184 582.906 18.6106C582.222 20.173 581.233 21.5926 579.989 22.7908C578.757 23.9506 577.297 24.8584 575.694 25.4603C572.267 26.7368 568.471 26.7368 565.045 25.4603C563.43 24.8646 561.959 23.9561 560.721 22.7908C559.472 21.5988 558.479 20.1777 557.805 18.6106C557.07 16.922 556.707 15.1038 556.737 13.2718M559.342 13.2718C559.361 14.7713 559.689 16.252 560.305 17.6284C560.844 18.9027 561.631 20.0652 562.622 21.0532C563.618 22.0069 564.805 22.7527 566.111 23.2442C567.477 23.7755 568.937 24.0409 570.408 24.0248C571.887 24.0409 573.356 23.7755 574.73 23.2442C576.024 22.7452 577.203 22.0003 578.194 21.0532C579.194 20.0774 579.974 18.9113 580.485 17.6284C581.05 16.2241 581.332 14.7283 581.317 13.2214C581.334 11.6898 581.052 10.1689 580.485 8.7389C579.974 7.45612 579.194 6.28984 578.194 5.31404C577.205 4.35802 576.028 3.60435 574.73 3.09796C573.356 2.56654 571.887 2.30129 570.408 2.3173C568.937 2.30131 567.477 2.56662 566.111 3.09796C564.805 3.60138 563.618 4.35521 562.622 5.31404C561.631 6.30203 560.844 7.4646 560.305 8.7389C559.717 10.1638 559.425 11.6871 559.446 13.2214M570.824 14.3798H568.064V19.7689H565.045V5.74215H569.47C570.429 5.73073 571.386 5.78965 572.335 5.91843C573.092 5.99474 573.827 6.21738 574.496 6.57318C575.061 6.87611 575.521 7.33103 575.824 7.8827C576.188 8.56661 576.357 9.33089 576.32 10.0988C576.325 10.8552 576.109 11.5978 575.694 12.2393C575.204 12.9497 574.505 13.5022 573.688 13.8258L577.049 19.7689H573.714L570.824 14.3798ZM573.428 10.0736C573.462 9.7371 573.394 9.39823 573.232 9.09854C573.072 8.79884 572.821 8.55133 572.516 8.38634C571.73 8.08611 570.888 7.94886 570.042 7.98343H568.117V12.2141H570.252C571.105 12.2835 571.958 12.099 572.699 11.6853C572.947 11.4962 573.14 11.2483 573.258 10.9658C573.377 10.6833 573.416 10.3759 573.377 10.0736" fill="white"/>
</svg>
