<?xml version="1.0" encoding="UTF-8"?>
<svg id="Layer_1" data-name="Layer 1" xmlns="http://www.w3.org/2000/svg" version="1.1" viewBox="0 0 181.5 278">
  <defs>
    <style>
      .cls-1 {
        fill: #000139;
        stroke-width: 0px;
      }
    </style>
  </defs>
  <path class="cls-1" d="M0,123.9c4,4,6.3,9.4,6.2,15.1,0,5.6-2.2,11-6.2,15l21.2,21.2c9.6-9.6,15-22.7,15-36.3s-5.4-26.7-15-36.3L0,123.9Z"/>
  <path class="cls-1" d="M72.6,51.3l-21.2,21.2c17.6,17.6,27.5,41.5,27.5,66.5,0,24.9-9.8,48.9-27.5,66.4l21.2,21.2c23.3-23.2,36.4-54.8,36.3-87.7,0-32.8-13-64.4-36.3-87.6Z"/>
  <path class="cls-1" d="M123.9,0l-21.2,21.2c31.3,31.2,48.9,73.5,48.8,117.7.1,44.2-17.5,86.6-48.8,117.8l21.2,21.2c37-36.8,57.7-86.8,57.6-139,.1-52.1-20.6-102.1-57.6-138.9Z"/>
</svg>